<?xml version="1.0" encoding="utf-8"?>
<!-- Generator: Adobe Illustrator 23.1.0, SVG Export Plug-In . SVG Version: 6.00 Build 0)  -->
<svg version="1.1" xmlns="http://www.w3.org/2000/svg" xmlns:xlink="http://www.w3.org/1999/xlink" x="0px" y="0px"
	 viewBox="0 0 800 800" style="enable-background:new 0 0 800 800;" xml:space="preserve">
<style type="text/css">
	.st0{fill:#2E2A29;}
	.st1{fill:#CBC3C0;}
	.st2{fill:#8B807F;}
	.st3{fill:#231F20;}
	.st4{opacity:0.85;}
	.st5{fill:#D4EEF4;stroke:#A0E8F9;stroke-width:0.5;stroke-miterlimit:10;}
</style>
<g id="Calque_1_copie_xA0_Image_1_">
	<g>
		<path class="st0" d="M480.71,326.95c-0.14-0.52-0.66-2.53-0.95-3.21c-4.22-9.9-11.82-16.36-13.76-17.92
			c-3.6-2.9-14.07-11.52-18-14.01c-10.81-6.84-13.32-17.83-15.78-29.17c-4.64-21.43-19.3-33.96-38.99-40.7
			c-24.17-8.28-48.91-9.01-73.76-2.63c-0.34,0.09-0.8-0.33-1.2-0.52c-3.15,1.08-6.31,2.15-9.46,3.22c-0.47,1.35-1.62,1.59-2.83,1.73
			c-4.09,2.2-8.19,4.41-12.29,6.61c-4.49,5.59-10.25,9.98-14.21,16.19c-3.12,4.9-1.56,10.05-2.8,14.94
			c2.54,1.85,4.12-1.88,7.19-1.16c-1.18,1.55-2.09,2.75-3,3.94c0.44,0.28,0.87,0.56,1.3,0.84c1.57-0.67,3.14-1.34,4.71-2
			c0.52-1.11,1.21-1.84,2.55-1.2c-0.64,0.81-1.28,1.61-1.92,2.42h-0.01v0.01c0.1,0.06,0.21,0.12,0.31,0.16
			c0.1,0.04,0.2,0.08,0.29,0.11c0.32,0.1,0.62,0.11,0.91,0.05c0.32-0.05,0.62-0.19,0.91-0.36c0.25-0.14,0.48-0.3,0.71-0.45
			c0.21-0.14,0.43-0.27,0.64-0.39v-0.01c0.13-0.24,0.27-0.45,0.43-0.62c0.06-0.06,0.11-0.11,0.16-0.16c0.45-0.39,1-0.44,1.72,0.08
			c-0.65,0.68-1.3,1.36-1.94,2.04c0,0.62,0.01,1.24,0.01,1.86c4.6-0.4,9.58-6.79,13.68,0.86c6.32-4.47,12.93-8.42,20.39-10.74
			c7.11-2.77,13.68-6.9,21.84-8.44c-5.7,3.76-11.82,6.21-15.37,11.32c6.52,4.3-2.87,6.77-0.58,10.61c3.35,1.14,6.58-2.07,11.74-1.98
			c-1.93,2.08-3.37,3.63-4.88,5.26c3.9,2.27,6.19-0.24,8.28,0.19c2,0.41,6.34-6.69,6.35,1.76c0,1.5,2.88-0.03,4.3-0.51
			c1.65-0.56,3.15-1.56,5.16-2.59c-0.73,4.63-5.87,8.79-3.37,11.81c2.34,2.83,7.74,0.55,13.11-1.04c-4.66,5.63-9.94,7.77-15.36,9.15
			c-5.96,1.51-5.46,3.67-1.74,7.28c9.65,9.34,22,13.26,34.27,17.4c0.91,0.31,1.8,0.7,2.7,1.06c13.44,1.62,23.78-2.25,34-12.44
			c2.5-2.49,13.64,0.04,19.51,2.62c7.52,4.89,18.94,10.61,23.42,22.67c0,0.01,0.01,0.03,0.02,0.05c0.08,0.23,0.19,0.45,0.32,0.68
			c0.01,0.01,0.01,0.01,0.01,0.02c0.52,0.92,1.28,1.85,1.51,2.81l9.78-7.38C480.73,327.03,480.72,326.99,480.71,326.95z
			 M283.67,259.6c0.05-0.06,0.1-0.12,0.14-0.18c0.05-0.06,0.1-0.13,0.15-0.19c0.02-0.03,0.04-0.05,0.07-0.08
			c0.02-0.03,0.05-0.06,0.08-0.08c0.05-0.04,0.11-0.08,0.17-0.1c0.02-0.01,0.03-0.02,0.05-0.02c0.14-0.03,0.31,0,0.47,0.05
			c0.12,0.02,0.24,0.06,0.36,0.08v0.01h-0.01c-0.02,0.03-0.05,0.05-0.07,0.08c-0.13,0.16-0.26,0.34-0.41,0.46
			c-0.05,0.05-0.11,0.08-0.17,0.1c-0.05,0.02-0.11,0.02-0.17,0.02c-0.04,0-0.08,0-0.13-0.02
			C284.02,259.7,283.84,259.63,283.67,259.6z"/>
		<path class="st1" d="M479.81,324.13c1.2,3.6,17.42,56.65,23.97,73.81c0.99,2.59,2.67,6.89,4.96,12.22
			c-1.98,5.97-10.62,4.62-14.98,5.33c-0.97,0.16-1.93,0.32-2.9,0.47c-4.5,0.1-2.26-1.41-3.33-2.25c0.3-4.39-0.16-9.04,2.9-12.48
			c1.74-0.3,1.23-1.37,0.58-2.49c-9.21-32.73-21.99-67.88-22.18-69.08c1.68,0.35,3.36,0.7,5.04,1.05c-0.25-2.6-0.49-5.17-0.78-8.17
			C475.67,323.25,476,334.36,479.81,324.13z"/>
		<path class="st2" d="M395.94,378.38h-8.62c-1.95-3.22-4.01-6.37-6.19-9.46c-8.79-12.48-11.16-25.96-8.23-40.69
			c0.6-3.01,0.67-6.13,1.15-10.83c-8.34,10.3-15.21,19.51-19.58,30.36c-0.3,0.76-0.51,1.61-0.54,2.42
			c-0.33,9.43-0.33,18.84,0.16,28.2h-10.42c-1.59-6.41-3.51-12.76-4.46-19.26c-2.19-15.08,6.41-27.44,11.54-40.65
			c1.11-2.85,2.22-5.71,3.21-8.61c1.43-4.22,3.14-8.65-4.52-7.56c-3.06,0.44-2.47-1.81-2.31-3.61c0.91-1.71,1.83-3.42,2.74-5.12
			c-0.35-0.24-0.7-0.48-1.05-0.72c-2.54,2.01-5.09,4.03-7.63,6.05c-1.31,0.48-2.62,0.96-3.93,1.44c-0.17-2.32-0.34-4.64-0.51-6.99
			c-2.49,0.74-3.56,3.88-6.91,2.91c1.02-3.38,1.99-6.61,3.02-10.02c-8.51,2.16-8.51,2.16-6.19-6.55c-2.19-0.41-5.47,5.95-6.59-0.92
			c0.05-0.29,0.11-0.56,0.17-0.85c-0.33,0.15-0.66,0.3-0.99,0.45c-2.67,2.48-5.3,5-8.02,7.42c-1.08,0.96-2.38,2.44-3.81,1.43
			c-0.58-0.4-0.25-2.45,0.01-3.68c1.21-5.63,3.87-10.58,7.59-14.92c3.46-4.04,7.12-7.91,10.69-11.86c7.11-2.77,13.68-6.9,21.84-8.44
			c-5.7,3.76-11.82,6.21-15.37,11.32c6.52,4.3-2.87,6.77-0.58,10.61c3.35,1.14,6.58-2.07,11.74-1.98c-1.93,2.08-3.37,3.63-4.88,5.26
			c3.9,2.27,6.19-0.24,8.28,0.19c2,0.41,6.34-6.69,6.35,1.76c0,1.5,2.88-0.03,4.3-0.51c1.65-0.56,3.15-1.56,5.16-2.59
			c-0.73,4.63-5.87,8.79-3.37,11.81c2.34,2.83,7.74,0.55,13.11-1.04c-4.66,5.63-9.94,7.77-15.36,9.15
			c-5.96,1.51-5.46,3.67-1.74,7.28c9.65,9.34,22,13.26,34.27,17.4c0.91,0.31,1.8,0.7,2.7,1.06c-1.61,5.57-3.22,11.15-4.83,16.73
			c-1.68,5.82-1.17,11.29,1.52,16.89C392.9,360.03,392.39,369.68,395.94,378.38z"/>
		<path class="st1" d="M337.26,300.34c-0.17-2.32-0.34-4.64-0.51-6.99c-2.49,0.74-3.56,3.88-6.91,2.91
			c1.02-3.38,1.99-6.61,3.02-10.02c-8.51,2.16-8.51,2.16-6.19-6.55c-2.19-0.41-5.47,5.95-6.59-0.92c-0.28-0.13-0.55-0.26-0.82-0.4
			c-2.67,2.48-5.3,5-8.02,7.42c-1.08,0.96-2.38,2.44-3.81,1.43c-0.58-0.4-0.25-2.45,0.01-3.68c1.21-5.63,3.87-10.58,7.59-14.92
			c3.46-4.04,7.12-7.91,10.69-11.86c-7.46,2.32-14.07,6.27-20.39,10.74c-6.43,7.56-11.76,15.66-13.1,26.41
			c3.8-1.66,6.71-4.02,10.95-3.78c-1.94,5.04-5.61,9.09-6.06,15.2c2.6-1.75,4.5-3.03,7.35-4.94c-0.65,2.93-1.01,4.54-1.63,7.33
			c4.07-3.49,7.66-5.46,11.72-6.45c0.29-0.32,0.57-0.65,0.88-0.95c0.03-0.02,0.24,0.15,0.37,0.23c-0.32,0.29-0.64,0.59-0.96,0.89
			c-0.71,1.92-1.42,3.84-2.21,5.96c2.73,0.4,3.36-3.69,6.19-2.3c-1.36,2.99-2.68,5.87-3.99,8.74
			C321.51,307.59,329.13,303.57,337.26,300.34z"/>
		<path class="st1" d="M282.17,265.09c1.57-0.67,3.14-1.33,4.71-2c0.21,0.41,0.42,0.82,0.62,1.23c1.55,0.97,2.59-0.24,3.77-0.88
			c0.12,0.44,0.25,0.89,0.37,1.33c0,0.62,0.01,1.24,0.01,1.86c-4.25,2.21-8.45,4.51-12.76,6.59c-1.39,0.67-3.04,1.99-4.61,0.8
			c-1.65-1.26,0.89-2.59,0.39-4.12c-3.98,1.01-7.95,0.65-12.05,2.15c-4.46,1.63-0.51-2.95-1.9-4.68c-3.2,0.07-6.9-1.82-10.4,0.88
			c-0.26,0.2-1.58-0.38-1.57-0.47c1.22-7.93-4.85-3.25-8.17-4.7c5.17-7.98,11.81-13.81,20.76-16.98c-0.09,0.32-0.13,0.67-0.29,0.94
			c-1.8,3.03-6.46,4.94-5.18,8.77c0.35,1.03,5.73,5.61,10.01,1.57c0.46-0.44,4.4,1.28,4.49,2.21c0.6,6.5,4.14,1.67,6.31,1.87
			c2.54,1.85,4.12-1.88,7.2-1.16c-1.19,1.56-0.46,2.38-1.36,3.57L282.17,265.09z"/>
		<path class="st2" d="M276.68,261.48c-2.16-0.2-5.7,4.63-6.31-1.87c-0.09-0.93-4.03-2.65-4.49-2.21
			c-4.28,4.04-9.66-0.54-10.01-1.57c-1.28-3.83,3.37-5.74,5.18-8.77c0.16-0.27,0.2-0.63,0.29-0.94c9.5-7.88,19.91-13.91,32.35-15.76
			c-4.49,5.6-10.25,9.98-14.21,16.2C276.36,251.44,277.92,256.59,276.68,261.48z"/>
		<path class="st0" d="M489.17,404.41c-0.92,4.44-0.38,6.85-0.71,11.25c-3.51-0.53-9.88-2.12-9.74-6.7
			c0.21-6.95,5.8-4.04,10.56-5.81C489.36,403.54,489.1,404.01,489.17,404.41z"/>
		<path class="st1" d="M341.19,298.9c2.54-2.02,5.09-4.04,7.63-6.06c0.35,0.24,0.7,0.48,1.06,0.72c-0.92,1.71-1.83,3.41-2.74,5.12
			C345.16,299.07,343.25,301.07,341.19,298.9z"/>
		<path class="st0" d="M287.5,264.32c-0.21-0.41-0.42-0.82-0.62-1.23c0.52-1.11,1.21-1.84,2.55-1.2
			C288.79,262.7,288.14,263.51,287.5,264.32z"/>
		<path class="st0" d="M291.64,264.78c-0.12-0.44-0.25-0.89-0.37-1.33c0.54-0.98,1.23-1.48,2.31-0.7
			C292.93,263.42,292.28,264.1,291.64,264.78z"/>
		<path class="st0" d="M285.16,259.09c-0.21,0.23-0.39,0.55-0.66,0.64c-0.23,0.08-0.55-0.08-0.83-0.13c0.2-0.22,0.37-0.55,0.62-0.63
			C284.53,258.88,284.86,259.03,285.16,259.09z"/>
		<path class="st0" d="M507.6,412.64c-0.64-4.49-0.24-6.21-2.3-12.3c1.14,0.06,1.71,0.28,2.84,0.42c3.46,0.42,7.97-2.99,9.2,4.56
			C518.13,410.09,511.14,411.31,507.6,412.64z"/>
		<path class="st1" d="M319.26,278.37c0.33-0.15,0.66-0.3,1-0.45c-0.06,0.28-0.12,0.57-0.18,0.85
			C319.8,278.64,319.53,278.51,319.26,278.37z"/>
	</g>
</g>
<g id="Calque_2">
	<path class="st3" d="M380.44,383.18c-7.44,0-15.74,7.02-15.74,16.92c0,9.14,5.37,16.72,15.02,16.72c9.5,0,15.59-8.53,15.59-17.22
		C395.31,392.23,391.09,383.18,380.44,383.18L380.44,383.18z M381.24,414.28c-6.68,0-12.7-8.83-12.7-15.97
		c0-10.08,6.14-12.35,10.08-12.35c6.52,0,12.28,6.62,12.28,15.46C390.9,409.45,387.48,414.28,381.24,414.28L381.24,414.28z"/>
	<path class="st3" d="M333.13,411.52l-10.1-27.83h-5.78v0.71c0.74,0,1.62,0.23,1.63,1.48c-0.04,0.6-0.17,1.19-0.38,1.76
		c-0.15,0.44-8.55,24.65-8.55,24.65c-0.96,2.78-1.72,3.34-3.73,3.34v0.71h8.56v-0.71c-2.31,0-3-0.9-3-1.65
		c0.08-1.03,0.32-2.04,0.72-3l2.43-7.3h10.94l2.08,5.9c1.01,2.78,1.33,3.64,1.33,4.55c0,0.96-0.45,1.51-2.43,1.51v0.71h9.82v-0.71
		C334.5,415.61,334.37,414.9,333.13,411.52z M315.57,401.8l4.82-13.9h0.09l4.75,13.9H315.57z"/>
	<path class="st3" d="M360.71,411.98l-8.65-11.72c5.22-0.26,9.1-3.74,9.1-8.9c0-4.19-3.66-7.67-10.56-7.67h-12v0.71l0,0
		c1.12,0,2.45,0.25,2.45,2.12v26.99c0,2.11-1.71,2.11-2.45,2.11v0.71h9.6v-0.72c-0.78,0-2.45,0-2.45-2.12v-27.92h2.59
		c5.87,0,8.44,2.33,8.44,6.62c0,3.86-1.71,7.21-9.84,7.21l11.97,16.93h6.16v-0.71C363.69,415.6,362.14,413.89,360.71,411.98
		L360.71,411.98z"/>
	<path class="st3" d="M312.23,384.4v-0.71h-8.84v0.71c3.21,0,3.95,1.26,2.8,5.2l-6.43,22.16h-0.1c0,0-6.37-21.11-6.87-22.83
		c-0.66-2.27-1.77-4.55,2.16-4.55v-0.71h-11.22v0.71c1.8,0,3.11,0.56,3.74,2.27c1.08,2.9,2,5.86,2.77,8.86
		c0,0.91-2.92,10.6-4.42,15.8h-0.09c0,0-6.42-20.61-7.13-22.88c-0.34-0.82-0.57-1.68-0.68-2.56c0-0.99,0.68-1.48,2.27-1.48v-0.71
		h-9.64v0.71c2.17,0,2.72,1.42,3.29,3.23l9.27,28.99h3.22l5.03-18.54h0.09l5.48,18.54h3.37l8.32-28.74
		C309.26,385.66,310.7,384.4,312.23,384.4z"/>
	<path class="st3" d="M259.24,397.23c-5.9-1.26-8.26-1.98-8.26-5.63c0-3.71,3.12-6.55,8.3-6.55c4.05-0.08,7.54,2.82,8.19,6.81h0.74
		l-0.19-7.02c-2.52-1.08-5.22-1.65-7.96-1.66c-7.72,0-12.72,4.35-12.72,9.34c0,6.16,4.46,7.73,12.72,9.45
		c3.31,0.7,6.1,1.68,6.1,5.72c0,5.24-4.47,7.25-7.97,7.25c-5.02,0-8.46-3.47-9.62-8.32h-0.74l0.29,7.83
		c2.63,1.59,5.66,2.42,8.73,2.38c8.93,0,12.96-4.74,12.96-10.35C269.79,399.76,265.23,398.5,259.24,397.23L259.24,397.23z"/>
	<path class="st3" d="M474.31,413.64l-13.39-15.26c0,0,9.35-10.2,10.37-11.3c1.44-1.56,2.65-2.7,4.64-2.7v-0.71h-9.27v0.71
		c3.98,0,2.75,1.93,2.07,2.7s-11.83,12.91-11.83,12.91l14.2,16.32h6.44v-0.7C476.09,415.61,475.32,414.85,474.31,413.64z"/>
	<path class="st3" d="M435.13,397.23c-5.9-1.26-8.26-1.98-8.26-5.63c0-3.71,3.12-6.55,8.3-6.55c4.05-0.09,7.54,2.82,8.19,6.81h0.74
		l-0.19-7.02c-2.52-1.08-5.23-1.65-7.97-1.66c-7.73,0-12.72,4.35-12.72,9.34c0,6.16,4.46,7.73,12.72,9.45
		c3.31,0.7,6.1,1.68,6.1,5.72c0,5.24-4.46,7.25-7.97,7.25c-5.01,0-8.46-3.47-9.62-8.32h-0.75l0.29,7.83
		c2.63,1.59,5.65,2.42,8.73,2.38c8.93,0,12.96-4.74,12.96-10.35C445.68,399.76,441.12,398.49,435.13,397.23L435.13,397.23z"/>
	<path class="st3" d="M423.6,383.69h-8.56v0.71c4.15,0,3.05,2.72,2.54,4.34c-1.14,3.56-7.54,23.01-7.54,23.01h-0.1L402,388.04
		c-0.27-0.7-0.44-1.43-0.53-2.17c0-0.96,0.61-1.47,2.45-1.47v-0.71h-9.82v0.71c2.16,0,2.38,1.16,2.81,2.27l10.5,29.95h3.01
		c0,0,8.92-27.22,9.67-29.53c0.7-2.18,1.78-2.7,3.52-2.7L423.6,383.69L423.6,383.69z"/>
	<path class="st3" d="M456.32,413.49v-26.97c0-2.12,1.68-2.12,2.44-2.12v-0.71h-9.6v0.71c0.78,0,2.45,0,2.45,2.12v26.97
		c0,2.12-1.71,2.12-2.45,2.12v0.71h9.6v-0.71C457.99,415.61,456.32,415.61,456.32,413.49z"/>
	<g class="st4">
		<path class="st5" d="M500.38,374.57c0.1-0.25,0.05-0.54-0.14-0.73l-5.33-5.33c-0.12-0.12-0.29-0.2-0.47-0.2h-8
			c-0.18,0-0.35,0.07-0.47,0.2l-5.33,5.33c-0.26,0.26-0.26,0.68,0,0.94l9.33,9.33c0.01,0.01,0.02,0.01,0.03,0.02
			c0.04,0.04,0.1,0.07,0.15,0.1c0.02,0.01,0.04,0.02,0.06,0.03c0.15,0.06,0.31,0.06,0.46,0c0.02-0.01,0.04-0.02,0.06-0.03
			c0.05-0.03,0.1-0.06,0.15-0.1c0.01-0.01,0.02-0.01,0.03-0.02l9.33-9.33C500.3,374.72,500.35,374.65,500.38,374.57z M486.42,374.98
			l2.28,5.99l-5.99-5.99H486.42z M493.02,374.98l-2.59,6.79l-2.59-6.79H493.02z M488.12,373.65l2.31-3.46l2.31,3.46H488.12z
			 M494.45,374.98h3.71l-5.99,5.99L494.45,374.98z M498.15,373.65h-3.81l-2.67-4h2.48L498.15,373.65z M486.71,369.65h2.48l-2.67,4
			h-3.81L486.71,369.65z"/>
	</g>
</g>
</svg>
